<?xml version="1.0" encoding="utf-8"?>
<!-- Generator: Adobe Illustrator 24.1.1, SVG Export Plug-In . SVG Version: 6.00 Build 0)  -->
<svg version="1.1" id="Layer_1" xmlns="http://www.w3.org/2000/svg" xmlns:xlink="http://www.w3.org/1999/xlink" x="0px" y="0px"
	 viewBox="0 0 121.7 111.4" style="enable-background:new 0 0 121.7 111.4;" xml:space="preserve">
<style type="text/css">
	.st0{fill:#FFD0B3;}
	.st1{fill:#323031;stroke:#323031;stroke-width:0.1;stroke-miterlimit:10;}
	.st2{fill:#323031;stroke:#323031;stroke-width:0.8;stroke-miterlimit:10;}
	.st3{fill:none;}
	.st4{fill:none;stroke:#264653;stroke-width:7;stroke-miterlimit:10;}
	.st5{fill:#323031;}
	.st6{fill:#264653;}
</style>
<path class="st0" d="M93.2,45.5c-0.1,6.1-1.9,12-5.3,17L61.8,45.1L35.9,62.7c-3.6-5.3-5.5-11.5-5.4-17.9c0.2-17.3,14.4-31.2,31.7-31
	C79.5,14,93.4,28.2,93.2,45.5z"/>
<path class="st1" d="M21.7,83.6l-0.2-0.4c-1.9-3.6-1.2-8.6,1.5-11.1l37-34.9c1.5-1.4,3.5-0.9,4.6,1.1l1.7,3.3L21.7,83.6z"/>
<path class="st1" d="M103.2,82.2l0.2-0.4c1.8-3.7,1-8.6-1.7-11l-38.5-34c-1.1-1-2.7-0.6-3.4,1l-2.1,4.2L103.2,82.2z"/>
<path class="st2" d="M35.5,64.9l-0.1,0.3c-1.1,2.8-0.5,6.7,1.3,8.5l25,25.9c1,1,2.3,0.6,2.9-1l1-2.6L35.5,64.9z"/>
<path class="st2" d="M88,63.5l0.1,0.3c1.3,2.8,1,6.6-0.7,8.6L63.8,99.8c-0.7,0.8-1.7,0.5-2.2-0.6l-1.5-3.2L88,63.5z"/>
<line class="st3" x1="5.9" y1="9.7" x2="5.2" y2="10.2"/>
<line class="st3" x1="21.7" y1="9.9" x2="21" y2="9.5"/>
<path class="st4" d="M26.6,66.1c-15.1-26.4,4-60.4,34.5-61s50.9,33,36.6,59.8"/>
<rect x="55.5" y="61.4" class="st5" width="6" height="6"/>
<rect x="55.5" y="69.2" class="st5" width="6" height="6"/>
<rect x="63.3" y="69.2" class="st5" width="6" height="6"/>
<rect x="63.3" y="61.4" class="st5" width="6" height="6"/>
<line class="st3" x1="9" y1="25.7" x2="11.6" y2="25.7"/>
<g>
	<g>
		<path class="st5" d="M10.8,100.1L10.8,100.1c-0.1-0.3-0.2-0.5-0.3-0.7c-0.2-0.2-0.4-0.3-0.7-0.3H9.6V99h1.2V100.1z M10.8,108.5
			v1.1H9.6v-0.2h0.2c0.3,0,0.5-0.1,0.7-0.3C10.6,108.9,10.7,108.7,10.8,108.5L10.8,108.5z M13,99v10.5h-2.3V99H13z M18,104v0.6h-5.1
			V104H18z M13,100.1V99h1.2v0.2c0,0-0.1,0-0.2,0c-0.3,0-0.5,0.1-0.7,0.3C13.1,99.7,13,99.9,13,100.1L13,100.1z M13,108.5L13,108.5
			c0.1,0.3,0.2,0.5,0.3,0.7c0.2,0.2,0.4,0.3,0.7,0.3c0.1,0,0.2,0,0.2,0v0.2H13V108.5z M17.9,100.1L17.9,100.1c0-0.3-0.1-0.5-0.3-0.7
			c-0.2-0.2-0.4-0.3-0.7-0.3c-0.1,0-0.2,0-0.2,0V99h1.2V100.1z M17.9,108.5v1.1h-1.2v-0.2c0,0,0.1,0,0.2,0c0.3,0,0.5-0.1,0.7-0.3
			C17.8,108.9,17.9,108.7,17.9,108.5L17.9,108.5z M20.1,99v10.5h-2.3V99H20.1z M20.1,100.1V99h1.2v0.2h-0.2c-0.3,0-0.5,0.1-0.7,0.3
			C20.2,99.7,20.1,99.9,20.1,100.1L20.1,100.1z M20.1,108.5L20.1,108.5c0.1,0.3,0.2,0.5,0.3,0.7c0.2,0.2,0.4,0.3,0.7,0.3h0.2v0.2
			h-1.2V108.5z"/>
		<path class="st5" d="M27.7,100.4c0.8,0,1.5,0.1,2.2,0.3c0.6,0.2,1.2,0.5,1.7,0.9c0.5,0.4,0.8,0.9,1.1,1.5c0.3,0.6,0.4,1.2,0.4,2
			c0,0.7-0.1,1.4-0.4,1.9c-0.3,0.6-0.6,1.1-1.1,1.5c-0.5,0.4-1,0.7-1.7,0.9c-0.7,0.2-1.4,0.3-2.2,0.3c-0.8,0-1.5-0.1-2.2-0.3
			c-0.7-0.2-1.2-0.5-1.7-0.9c-0.5-0.4-0.8-0.9-1.1-1.5c-0.3-0.6-0.4-1.2-0.4-1.9c0-0.7,0.1-1.4,0.4-2s0.6-1.1,1.1-1.5
			c0.5-0.4,1-0.7,1.7-0.9C26.2,100.5,26.9,100.4,27.7,100.4z M27.7,109.2c0.6,0,1.1-0.2,1.6-0.5s0.8-0.8,1-1.4
			c0.2-0.6,0.4-1.3,0.4-2.2c0-0.8-0.1-1.6-0.4-2.2s-0.6-1.1-1-1.4s-1-0.5-1.6-0.5c-0.6,0-1.1,0.2-1.6,0.5c-0.5,0.3-0.8,0.8-1.1,1.4
			s-0.4,1.3-0.4,2.2c0,0.8,0.1,1.6,0.4,2.2c0.3,0.6,0.6,1.1,1.1,1.4C26.6,109,27.1,109.2,27.7,109.2z"/>
		<path class="st5" d="M34.9,108.6v1h-1.5v-0.2h0.2c0.2,0,0.5-0.1,0.7-0.2c0.2-0.1,0.3-0.3,0.3-0.6H34.9z M35.8,100.4h0.1l0.5,1.4
			l-0.9,7.8h-1L35.8,100.4z M35.5,108.8c0,0.1,0,0.2,0.1,0.4c0.1,0.1,0.2,0.2,0.4,0.2h0.2v0.2h-0.9L35.5,108.8L35.5,108.8z
			 M35.9,100.4l4.4,6.6l-0.8,2.8l-4-6L35.9,100.4z M44.1,100.4l0.1,1.5l-4,6.4c-0.2,0.3-0.3,0.6-0.4,0.8c-0.1,0.2-0.1,0.5-0.1,0.7
			h-0.1l-0.6-1.2L44.1,100.4z M43.2,108.8L43.2,108.8l0.2,0.8h-0.9v-0.2h0.2c0.2,0,0.4-0.1,0.4-0.2C43.2,109,43.2,108.9,43.2,108.8z
			 M44.3,100.4l1.3,9.2h-2.3l-0.7-5.5l1.6-3.7H44.3z M45.2,108.6h0.3c0,0.3,0.2,0.5,0.4,0.6c0.2,0.1,0.4,0.2,0.6,0.2h0.2v0.2h-1.5
			V108.6z"/>
		<path class="st6" d="M48.1,101.5L48.1,101.5c0-0.2-0.1-0.4-0.3-0.6c-0.2-0.2-0.4-0.2-0.6-0.2c0,0-0.1,0-0.2,0v-0.2h1.1V101.5z
			 M48.1,108.6v0.9H47v-0.2c0.1,0,0.2,0,0.2,0c0.2,0,0.4-0.1,0.6-0.2C48,109,48,108.8,48.1,108.6L48.1,108.6z M50.2,100.5v9H48v-9
			H50.2z M50.2,101.5v-0.9h1.1l0,0.2c-0.1,0-0.2,0-0.2,0c-0.2,0-0.4,0.1-0.6,0.2S50.2,101.3,50.2,101.5L50.2,101.5z M50.2,108.6
			L50.2,108.6c0,0.2,0.1,0.4,0.3,0.6c0.2,0.2,0.4,0.2,0.6,0.2c0.1,0,0.2,0,0.2,0v0.2h-1.1V108.6z"/>
		<path class="st5" d="M53.3,101.5L53.3,101.5c0-0.2-0.1-0.4-0.3-0.6c-0.2-0.2-0.3-0.2-0.6-0.2c0,0-0.1,0-0.2,0v-0.2h1.1L53.3,101.5
			z M53.3,108.6l0.1,0.9h-1.1v-0.2c0.1,0,0.2,0,0.2,0c0.2,0,0.4-0.1,0.6-0.2C53.2,109,53.3,108.8,53.3,108.6L53.3,108.6z
			 M55.4,100.5v9h-2.2v-9H55.4z M59.1,100.5v0.6h-3.7v-0.6H59.1z M58.4,104.8v0.6h-3v-0.6H58.4z M59,109l0.3,0.6h-3.9V109H59z
			 M59.9,106.8l-0.6,2.8h-2.6l0.5-0.6c0.4,0,0.8-0.1,1.1-0.3s0.6-0.4,0.9-0.8c0.2-0.3,0.4-0.7,0.6-1.1H59.9z M58.4,103.5v1.3h-1.3v0
			c0.4,0,0.6-0.1,0.8-0.4s0.3-0.5,0.3-0.8v-0.1H58.4z M58.4,105.4v1.3h-0.1v-0.1c0-0.3-0.1-0.6-0.3-0.8c-0.2-0.2-0.5-0.3-0.8-0.3v0
			H58.4z M59.1,100.3v0.4l-1.6-0.1c0.3,0,0.6,0,0.9-0.1C58.8,100.4,59,100.4,59.1,100.3z M59.1,101.1v1.6H59v-0.1
			c0-0.4-0.1-0.8-0.4-1c-0.2-0.3-0.6-0.4-1-0.4v0H59.1z"/>
	</g>
</g>
<g>
	<g>
		<path class="st6" d="M67.9,108.5v1.1h-1.2v-0.2c0.2,0,0.3,0,0.3,0c0.3,0,0.5-0.1,0.6-0.3S67.9,108.7,67.9,108.5L67.9,108.5z
			 M67.9,98.8l2.2,2.3l0,8.4h-2.1v-8.8c0-0.6-0.1-1.2-0.2-1.9H67.9z M67.9,98.8l9.6,9.1l0.2,1.8l-9.6-9.1L67.9,98.8z M70,108.5
			c0,0.3,0.1,0.5,0.3,0.6c0.2,0.2,0.4,0.3,0.6,0.3c0,0,0.1,0,0.3,0v0.2H70L70,108.5L70,108.5z M74.2,99.1h1.2v1.1h0
			c0-0.3-0.1-0.5-0.3-0.7c-0.2-0.2-0.4-0.3-0.7-0.3c-0.2,0-0.3,0-0.3,0V99.1z M77.6,99.1v8.8c0,0.4,0,0.7,0,1c0,0.3,0.1,0.6,0.1,0.9
			h-0.1l-2.2-2.4v-8.3H77.6z M78.8,99.1v0.2h-0.3c-0.3,0-0.5,0.1-0.6,0.3c-0.2,0.2-0.3,0.4-0.3,0.7h0v-1.1H78.8z"/>
		<path class="st6" d="M80.8,101.5L80.8,101.5c0-0.2-0.1-0.4-0.3-0.6c-0.2-0.2-0.3-0.2-0.6-0.2c0,0-0.1,0-0.2,0v-0.2h1.1L80.8,101.5
			z M80.8,108.6l0.1,0.9h-1.1v-0.2c0.1,0,0.2,0,0.2,0c0.2,0,0.4-0.1,0.6-0.2C80.6,109,80.7,108.8,80.8,108.6L80.8,108.6z
			 M82.9,100.6v9h-2.2v-9H82.9z M86.6,100.6v0.6h-3.7v-0.6H86.6z M85.9,104.8v0.6h-3v-0.6H85.9z M86.4,109l0.3,0.6h-3.9V109H86.4z
			 M87.4,106.8l-0.6,2.8h-2.6l0.5-0.6c0.4,0,0.8-0.1,1.1-0.3s0.6-0.4,0.9-0.8c0.2-0.3,0.4-0.7,0.6-1.1H87.4z M85.9,103.5v1.3h-1.3v0
			c0.3,0,0.6-0.1,0.8-0.4s0.3-0.5,0.3-0.8v-0.1H85.9z M85.9,105.4v1.3h-0.2v-0.1c0-0.3-0.1-0.6-0.3-0.8c-0.2-0.2-0.5-0.3-0.8-0.3v0
			H85.9z M86.6,100.3v0.4l-1.6-0.1c0.3,0,0.6,0,0.9-0.1C86.2,100.4,86.4,100.4,86.6,100.3z M86.6,101.1v1.6h-0.1v-0.1
			c0-0.4-0.1-0.8-0.4-1c-0.2-0.3-0.6-0.4-1-0.4v0H86.6z"/>
		<path class="st6" d="M89.2,101.5L89.2,101.5c0-0.2-0.1-0.4-0.3-0.6c-0.2-0.1-0.3-0.2-0.6-0.2c0,0-0.1,0-0.1,0s-0.1,0-0.1,0v-0.2
			h1.1L89.2,101.5z M89.2,108.6l0.1,0.9h-1.1v-0.2c0,0,0,0,0.1,0c0,0,0.1,0,0.1,0c0.2,0,0.4-0.1,0.6-0.2
			C89.1,109,89.2,108.8,89.2,108.6L89.2,108.6z M91.3,100.6v9h-2.2v-9H91.3z M92.6,100.6c0.8,0,1.5,0.1,2,0.3s0.9,0.5,1.1,0.9
			s0.4,0.8,0.4,1.3c0,0.6-0.1,1.1-0.4,1.5c-0.3,0.4-0.6,0.8-1,1c-0.4,0.2-0.9,0.3-1.4,0.3c-0.5,0-1-0.2-1.5-0.5v-0.1
			c0.2,0,0.4,0,0.6-0.1c0.2,0,0.3-0.1,0.5-0.2c0.2-0.1,0.3-0.3,0.5-0.5c0.2-0.2,0.3-0.5,0.4-0.8c0-0.1,0.1-0.3,0.1-0.4
			c0-0.1,0-0.3,0-0.4c0-0.5-0.2-1-0.5-1.3c-0.3-0.3-0.8-0.5-1.3-0.5h-0.7c0-0.2-0.1-0.4-0.1-0.6H92.6z M91.3,108.6L91.3,108.6
			c0,0.2,0.1,0.4,0.3,0.6c0.1,0.2,0.3,0.2,0.6,0.2c0,0,0.1,0,0.1,0s0.1,0,0.1,0v0.2h-1.1L91.3,108.6z"/>
		<path class="st5" d="M98.4,108.6c-0.1,0.3-0.1,0.5,0,0.6c0.1,0.1,0.3,0.2,0.5,0.2h0.1v0.2h-3v-0.2h0.1c0.2,0,0.4-0.1,0.6-0.2
			c0.2-0.1,0.4-0.3,0.5-0.7H98.4z M101.3,100.1l0,1.8l-3.3,7.6h-1.1l3.5-7.5c0-0.1,0.1-0.2,0.1-0.3c0.1-0.2,0.1-0.3,0.2-0.5
			s0.2-0.4,0.2-0.6c0.1-0.2,0.1-0.3,0.1-0.4H101.3z M102.6,106.6v0.6h-3.8v-0.6H102.6z M101.3,100.1l4.4,9.3h-2.5l-2.8-6.6
			L101.3,100.1z M102.8,108.6h2.5c0.1,0.3,0.3,0.5,0.6,0.7c0.2,0.1,0.4,0.2,0.6,0.2h0.1v0.2h-4.4v-0.2h0.1c0.2,0,0.3-0.1,0.5-0.2
			C102.9,109,102.9,108.8,102.8,108.6z"/>
		<path class="st6" d="M107.7,101.5L107.7,101.5c0-0.2-0.1-0.4-0.3-0.6s-0.4-0.2-0.6-0.2c0,0-0.1,0-0.2,0v-0.2h1V101.5z
			 M107.7,108.6l0.1,0.9h-1.1v-0.2c0.1,0,0.2,0,0.2,0c0.2,0,0.4-0.1,0.6-0.2C107.5,109,107.6,108.8,107.7,108.6L107.7,108.6z
			 M109.8,100.6v9h-2.2v-9H109.8z M109.8,101.5v-0.9h1v0.2c0,0-0.1,0-0.2,0c-0.2,0-0.4,0.1-0.6,0.2S109.8,101.3,109.8,101.5
			L109.8,101.5z M113.3,109l0.4,0.6h-3.9V109H113.3z M114.3,106.8l-0.6,2.8h-2.6l0.5-0.6c0.4,0,0.8-0.1,1.1-0.3s0.6-0.4,0.9-0.8
			s0.4-0.7,0.6-1.1H114.3z"/>
	</g>
</g>
</svg>
